<svg width="117" height="117" viewBox="0 0 117 117" fill="none" xmlns="http://www.w3.org/2000/svg">
<path d="M58.5 85.3125C64.5938 85.3125 69.7743 83.1789 74.0415 78.9116C78.3088 74.6444 80.4408 69.4655 80.4375 63.375C80.4375 57.2812 78.3039 52.1007 74.0366 47.8335C69.7694 43.5663 64.5905 41.4342 58.5 41.4375C52.4063 41.4375 47.2258 43.5711 42.9585 47.8384C38.6913 52.1056 36.5593 57.2845 36.5625 63.375C36.5625 69.4688 38.6961 74.6493 42.9634 78.9165C47.2306 83.1837 52.4095 85.3158 58.5 85.3125ZM58.5 75.5625C55.0875 75.5625 52.2031 74.3844 49.8469 72.0281C47.4906 69.6719 46.3125 66.7875 46.3125 63.375C46.3125 59.9625 47.4906 57.0781 49.8469 54.7219C52.2031 52.3656 55.0875 51.1875 58.5 51.1875C61.9125 51.1875 64.7969 52.3656 67.1531 54.7219C69.5094 57.0781 70.6875 59.9625 70.6875 63.375C70.6875 66.7875 69.5094 69.6719 67.1531 72.0281C64.7969 74.3844 61.9125 75.5625 58.5 75.5625ZM19.5 102.375C16.8188 102.375 14.5226 101.42 12.6116 99.5085C10.7006 97.5975 9.74676 95.303 9.75001 92.625V34.125C9.75001 31.4438 10.7055 29.1476 12.6165 27.2366C14.5275 25.3256 16.822 24.3717 19.5 24.375H34.8563L43.875 14.625H73.125L82.1438 24.375H97.5C100.181 24.375 102.477 25.3305 104.388 27.2415C106.299 29.1525 107.253 31.447 107.25 34.125V92.625C107.25 95.3063 106.295 97.6024 104.384 99.5134C102.473 101.424 100.178 102.378 97.5 102.375H19.5ZM97.5 92.625V34.125H77.7563L68.8594 24.375H48.1406L39.2438 34.125H19.5V92.625H97.5Z" fill="black" fill-opacity="0.14"/>
</svg>
