<svg width="499" height="400" viewBox="0 0 499 511" fill="none" xmlns="http://www.w3.org/2000/svg">
<path d="M0 261.112C0 327.204 26.2549 390.589 72.989 437.323C119.723 484.057 183.108 510.312 249.2 510.312C315.292 510.312 378.677 484.057 425.411 437.323C472.145 390.589 498.4 327.204 498.4 261.112C498.4 195.02 472.145 131.635 425.411 84.9013C378.677 38.1673 315.292 11.9124 249.2 11.9124C183.108 11.9124 119.723 38.1673 72.989 84.9013C26.2549 131.635 0 195.02 0 261.112Z" fill="#D9EDFF"/>
<path d="M172.814 468.815C172.814 471.294 182.003 473.671 198.36 475.423C214.717 477.176 236.901 478.16 260.034 478.16C283.166 478.16 305.351 477.176 321.708 475.423C338.064 473.671 347.254 471.294 347.254 468.815C347.254 466.337 338.064 463.96 321.708 462.207C305.351 460.455 283.166 459.47 260.034 459.47C236.901 459.47 214.717 460.455 198.36 462.207C182.003 463.96 172.814 466.337 172.814 468.815Z" fill="#F29E9E"/>
<path d="M151.127 401.107H167.848C170.065 401.107 172.192 400.226 173.76 398.658C175.328 397.09 176.209 394.963 176.209 392.746V296.598C176.209 294.381 175.328 292.254 173.76 290.687C172.192 289.119 170.065 288.238 167.848 288.238H151.127V401.107Z" fill="white" stroke="#020064" stroke-width="6.23" stroke-linecap="round" stroke-linejoin="round"/>
<path d="M272.364 275.698C275.479 244.461 279.622 177.457 253.549 177.457C248.561 177.457 243.777 179.439 240.25 182.966C236.722 186.493 234.741 191.277 234.741 196.265V202.539C234.741 248.523 214.805 296.612 176.179 296.612V392.76H181.113C205.223 392.76 216.624 409.481 259.823 409.481H332.982C337.416 409.481 341.67 407.719 344.805 404.583C347.941 401.447 349.703 397.194 349.703 392.76C349.703 388.325 347.941 384.072 344.805 380.936C341.67 377.8 337.416 376.038 332.982 376.038H341.342C345.777 376.038 350.03 374.277 353.166 371.141C356.302 368.005 358.064 363.752 358.064 359.317C358.064 354.882 356.302 350.629 353.166 347.493C350.03 344.357 345.777 342.596 341.342 342.596H349.703C354.138 342.596 358.391 340.834 361.527 337.698C364.663 334.562 366.424 330.309 366.424 325.874C366.424 321.44 364.663 317.186 361.527 314.051C358.391 310.915 354.138 309.153 349.703 309.153H358.064C362.498 309.153 366.752 307.391 369.887 304.255C373.023 301.12 374.785 296.866 374.785 292.432C374.785 287.997 373.023 283.744 369.887 280.608C366.752 277.472 362.498 275.71 358.064 275.71L272.364 275.698Z" fill="white"/>
<path d="M255.641 275.697H272.363" stroke="#020064" stroke-width="6.23" stroke-linecap="round" stroke-linejoin="round"/>
<path d="M332.981 376.025H324.62" stroke="#020064" stroke-width="6.23" stroke-linecap="round" stroke-linejoin="round"/>
<path d="M341.342 342.583H332.981" stroke="#020064" stroke-width="6.23" stroke-linecap="round" stroke-linejoin="round"/>
<path d="M349.702 309.14H341.342" stroke="#020064" stroke-width="6.23" stroke-linecap="round" stroke-linejoin="round"/>
<path d="M272.364 275.698C275.479 244.461 279.622 177.457 253.549 177.457C248.561 177.457 243.777 179.439 240.25 182.966C236.722 186.493 234.741 191.277 234.741 196.265V202.539C234.741 248.523 214.805 296.612 176.179 296.612V392.76H181.113C205.223 392.76 216.624 409.481 259.823 409.481H332.982C337.416 409.481 341.67 407.719 344.805 404.583C347.941 401.447 349.703 397.194 349.703 392.76C349.703 388.325 347.941 384.072 344.805 380.936C341.67 377.8 337.416 376.038 332.982 376.038H341.342C345.777 376.038 350.03 374.277 353.166 371.141C356.302 368.005 358.064 363.752 358.064 359.317C358.064 354.882 356.302 350.629 353.166 347.493C350.03 344.357 345.777 342.596 341.342 342.596H349.703C354.138 342.596 358.391 340.834 361.527 337.698C364.663 334.562 366.424 330.309 366.424 325.874C366.424 321.44 364.663 317.186 361.527 314.051C358.391 310.915 354.138 309.153 349.703 309.153H358.064C362.498 309.153 366.752 307.391 369.887 304.255C373.023 301.12 374.785 296.866 374.785 292.432C374.785 287.997 373.023 283.744 369.887 280.608C366.752 277.472 362.498 275.71 358.064 275.71L272.364 275.698Z" stroke="#020064" stroke-width="6.23" stroke-linecap="round" stroke-linejoin="round"/>
<path d="M92.6033 279.877H151.128V409.473H92.6033V279.877Z" fill="#F29E9E"/>
<path d="M92.6033 279.877H151.128V409.473H92.6033V279.877Z" stroke="#020064" stroke-width="6.23" stroke-linecap="round" stroke-linejoin="round"/>
<path d="M256.445 7.94423L269.242 33.8673C269.746 34.898 270.496 35.7896 271.424 36.464C272.353 37.1384 273.432 37.5752 274.568 37.7361L303.183 41.8977C304.489 42.0875 305.715 42.6387 306.724 43.4892C307.733 44.3397 308.483 45.4555 308.891 46.7104C309.299 47.9652 309.347 49.3091 309.031 50.5901C308.715 51.8711 308.046 53.0381 307.102 53.959L286.393 74.1442C285.579 74.9429 284.969 75.9262 284.615 77.0107C284.262 78.0952 284.175 79.249 284.362 80.3742L289.246 108.883C289.477 110.185 289.337 111.527 288.843 112.754C288.348 113.981 287.519 115.045 286.45 115.824C285.381 116.603 284.114 117.066 282.794 117.161C281.475 117.255 280.155 116.977 278.986 116.359L253.393 102.889C252.377 102.355 251.247 102.076 250.1 102.076C248.953 102.076 247.823 102.355 246.808 102.889L221.215 116.346C220.045 116.965 218.726 117.243 217.406 117.148C216.086 117.054 214.82 116.591 213.75 115.812C212.681 115.033 211.852 113.969 211.358 112.742C210.863 111.514 210.723 110.173 210.954 108.87L215.838 80.3618C216.027 79.2365 215.941 78.0823 215.587 76.9975C215.234 75.9128 214.623 74.9296 213.807 74.1318L193.13 53.9341C192.185 53.0131 191.517 51.8462 191.2 50.5652C190.884 49.2842 190.933 47.9403 191.34 46.6854C191.748 45.4306 192.499 44.3148 193.508 43.4643C194.516 42.6138 195.743 42.0625 197.049 41.8728L225.663 37.7112C226.799 37.5502 227.879 37.1135 228.807 36.4391C229.736 35.7647 230.485 34.8731 230.99 33.8423L243.761 7.94423C244.345 6.76039 245.248 5.76353 246.369 5.06648C247.49 4.36943 248.783 4 250.103 4C251.423 4 252.717 4.36943 253.838 5.06648C254.958 5.76353 255.862 6.76039 256.445 7.94423Z" fill="#F29E9E"/>
<path d="M256.445 7.94423L269.242 33.8673C269.746 34.898 270.496 35.7896 271.424 36.464C272.353 37.1384 273.432 37.5752 274.568 37.7361L303.183 41.8977C304.489 42.0875 305.715 42.6387 306.724 43.4892C307.733 44.3397 308.483 45.4555 308.891 46.7104C309.299 47.9652 309.347 49.3091 309.031 50.5901C308.715 51.8711 308.046 53.0381 307.102 53.959L286.393 74.1442C285.579 74.9429 284.969 75.9262 284.615 77.0107C284.262 78.0952 284.175 79.249 284.362 80.3742L289.246 108.883C289.477 110.185 289.337 111.527 288.843 112.754C288.348 113.981 287.519 115.045 286.45 115.824C285.381 116.603 284.114 117.066 282.794 117.161C281.475 117.255 280.155 116.977 278.986 116.359L253.393 102.889C252.377 102.355 251.247 102.076 250.1 102.076C248.953 102.076 247.823 102.355 246.808 102.889L221.215 116.346C220.045 116.965 218.726 117.243 217.406 117.148C216.086 117.054 214.82 116.591 213.75 115.812C212.681 115.033 211.852 113.969 211.358 112.742C210.863 111.514 210.723 110.173 210.954 108.87L215.838 80.3618C216.027 79.2365 215.941 78.0823 215.587 76.9975C215.234 75.9128 214.623 74.9296 213.807 74.1318L193.13 53.9341C192.185 53.0131 191.517 51.8462 191.2 50.5652C190.884 49.2842 190.933 47.9403 191.34 46.6854C191.748 45.4306 192.499 44.3148 193.508 43.4643C194.516 42.6138 195.743 42.0625 197.049 41.8728L225.663 37.7112C226.799 37.5502 227.879 37.1135 228.807 36.4391C229.736 35.7647 230.485 34.8731 230.99 33.8423L243.761 7.94423C244.345 6.76039 245.248 5.76353 246.369 5.06648C247.49 4.36943 248.783 4 250.103 4C251.423 4 252.717 4.36943 253.838 5.06648C254.958 5.76353 255.862 6.76039 256.445 7.94423Z" stroke="#020064" stroke-width="6.23" stroke-linecap="round" stroke-linejoin="round"/>
<path d="M108.844 63.8703L129.066 76.6106C129.868 77.1177 130.781 77.4214 131.727 77.4952C132.673 77.569 133.622 77.4108 134.493 77.0342L156.46 67.5958C157.462 67.1641 158.566 67.0217 159.645 67.1849C160.724 67.3481 161.736 67.8102 162.566 68.519C163.396 69.2277 164.011 70.1548 164.341 71.1951C164.671 72.2355 164.704 73.3475 164.434 74.4052L158.565 97.5808C158.331 98.4976 158.322 99.4574 158.539 100.378C158.756 101.299 159.193 102.154 159.812 102.87L175.58 120.844C176.299 121.664 176.775 122.67 176.953 123.747C177.131 124.824 177.004 125.929 176.586 126.937C176.169 127.946 175.478 128.818 174.591 129.454C173.704 130.09 172.657 130.465 171.568 130.537L147.719 132.114C146.773 132.177 145.856 132.469 145.047 132.965C144.239 133.461 143.563 134.146 143.078 134.961L130.854 155.52C130.297 156.458 129.488 157.222 128.519 157.724C127.55 158.227 126.46 158.447 125.372 158.362C124.283 158.276 123.241 157.888 122.362 157.24C121.484 156.592 120.804 155.712 120.401 154.697L111.523 132.5C111.173 131.619 110.613 130.837 109.892 130.221C109.171 129.606 108.311 129.175 107.386 128.968L84.1045 123.678C83.0407 123.438 82.0654 122.904 81.289 122.138C80.5126 121.372 79.9661 120.404 79.7113 119.343C79.4566 118.283 79.5037 117.172 79.8474 116.137C80.1911 115.102 80.8176 114.184 81.6562 113.486L100.022 98.1851C100.752 97.5801 101.324 96.8058 101.686 95.9295C102.049 95.0532 102.192 94.1016 102.103 93.1575L99.9163 69.3527C99.8167 68.2676 100.023 67.1763 100.51 66.202C100.998 65.2277 101.749 64.4093 102.678 63.839C103.606 63.2688 104.676 62.9696 105.765 62.9751C106.855 62.9806 107.921 63.2907 108.844 63.8703Z" fill="#F29E9E"/>
<path d="M108.844 63.8703L129.066 76.6106C129.868 77.1177 130.781 77.4214 131.727 77.4952C132.673 77.569 133.622 77.4108 134.493 77.0342L156.46 67.5958C157.462 67.1641 158.566 67.0217 159.645 67.1849C160.724 67.3481 161.736 67.8102 162.566 68.519C163.396 69.2277 164.011 70.1548 164.341 71.1951C164.671 72.2355 164.704 73.3475 164.434 74.4052L158.565 97.5808C158.331 98.4976 158.322 99.4574 158.539 100.378C158.756 101.299 159.193 102.154 159.812 102.87L175.58 120.844C176.299 121.664 176.775 122.67 176.953 123.747C177.131 124.824 177.004 125.929 176.586 126.937C176.169 127.946 175.478 128.818 174.591 129.454C173.704 130.09 172.657 130.465 171.568 130.537L147.719 132.114C146.773 132.177 145.856 132.469 145.047 132.965C144.239 133.461 143.563 134.146 143.078 134.961L130.854 155.52C130.297 156.458 129.488 157.222 128.519 157.724C127.55 158.227 126.46 158.447 125.372 158.362C124.283 158.276 123.241 157.888 122.362 157.24C121.484 156.592 120.804 155.712 120.401 154.697L111.523 132.5C111.173 131.619 110.613 130.837 109.892 130.221C109.171 129.606 108.311 129.175 107.386 128.968L84.1045 123.678C83.0407 123.438 82.0654 122.904 81.289 122.138C80.5126 121.372 79.9661 120.404 79.7113 119.343C79.4566 118.283 79.5037 117.172 79.8474 116.137C80.1911 115.102 80.8176 114.184 81.6562 113.486L100.022 98.1851C100.752 97.5801 101.324 96.8058 101.686 95.9295C102.049 95.0532 102.192 94.1016 102.103 93.1575L99.9163 69.3527C99.8167 68.2676 100.023 67.1763 100.51 66.202C100.998 65.2277 101.749 64.4093 102.678 63.839C103.606 63.2688 104.676 62.9696 105.765 62.9751C106.855 62.9806 107.921 63.2907 108.844 63.8703Z" stroke="#020064" stroke-width="6.23" stroke-linecap="round" stroke-linejoin="round"/>
<path d="M29.7296 180.203L48.0458 181.138C48.7724 181.174 49.497 181.034 50.1569 180.728C50.8169 180.422 51.3924 179.959 51.8336 179.381L62.9853 164.821C63.4945 164.157 64.1795 163.647 64.9629 163.352C65.7464 163.056 66.5969 162.986 67.4183 163.148C68.2398 163.311 68.9992 163.701 69.6108 164.273C70.2223 164.845 70.6616 165.576 70.8788 166.385L75.6509 184.097C75.8414 184.798 76.1987 185.442 76.6923 185.975C77.186 186.507 77.8012 186.913 78.4856 187.156L95.7863 193.268C96.5751 193.547 97.2702 194.041 97.7929 194.694C98.3157 195.347 98.6453 196.134 98.7444 196.965C98.8436 197.796 98.7084 198.638 98.3541 199.396C97.9998 200.154 97.4405 200.798 96.7395 201.254L81.3701 211.266C80.7616 211.664 80.2584 212.203 79.9037 212.838C79.5489 213.473 79.3531 214.184 79.3329 214.911L78.8718 233.245C78.8506 234.082 78.5958 234.896 78.136 235.596C77.6763 236.295 77.0301 236.852 76.2705 237.203C75.5109 237.554 74.6681 237.686 73.8375 237.583C73.0069 237.481 72.2215 237.148 71.5703 236.622L57.316 225.103C56.7506 224.644 56.0817 224.33 55.3674 224.187C54.6531 224.045 53.9149 224.079 53.2167 224.287L35.6356 229.514C34.8334 229.753 33.9801 229.764 33.1724 229.543C32.3647 229.322 31.6351 228.88 31.0662 228.266C30.4973 227.651 30.1119 226.89 29.9539 226.068C29.7958 225.245 29.8714 224.395 30.1719 223.614L36.7134 206.481C36.9764 205.802 37.069 205.069 36.9832 204.346C36.8974 203.622 36.6358 202.931 36.2213 202.332L25.8234 187.224C25.3504 186.536 25.079 185.73 25.0396 184.896C25.0002 184.061 25.1944 183.233 25.6004 182.503C26.0064 181.773 26.608 181.172 27.3375 180.765C28.067 180.359 28.8955 180.164 29.7296 180.203Z" fill="#F29E9E"/>
<path d="M29.7296 180.203L48.0458 181.138C48.7724 181.174 49.497 181.034 50.1569 180.728C50.8169 180.422 51.3924 179.959 51.8336 179.381L62.9853 164.821C63.4945 164.157 64.1795 163.647 64.9629 163.352C65.7464 163.056 66.5969 162.986 67.4183 163.148C68.2398 163.311 68.9992 163.701 69.6108 164.273C70.2223 164.845 70.6616 165.576 70.8788 166.385L75.6509 184.097C75.8414 184.798 76.1987 185.442 76.6923 185.975C77.186 186.507 77.8012 186.913 78.4856 187.156L95.7863 193.268C96.5751 193.547 97.2702 194.041 97.7929 194.694C98.3157 195.347 98.6453 196.134 98.7444 196.965C98.8436 197.796 98.7084 198.638 98.3541 199.396C97.9998 200.154 97.4405 200.798 96.7395 201.254L81.3701 211.266C80.7616 211.664 80.2584 212.203 79.9037 212.838C79.5489 213.473 79.3531 214.184 79.3329 214.911L78.8718 233.245C78.8506 234.082 78.5958 234.896 78.136 235.596C77.6763 236.295 77.0301 236.852 76.2705 237.203C75.5109 237.554 74.6681 237.686 73.8375 237.583C73.0069 237.481 72.2215 237.148 71.5703 236.622L57.316 225.103C56.7506 224.644 56.0817 224.33 55.3674 224.187C54.6531 224.045 53.9149 224.079 53.2167 224.287L35.6356 229.514C34.8334 229.753 33.9801 229.764 33.1724 229.543C32.3647 229.322 31.6351 228.88 31.0662 228.266C30.4973 227.651 30.1119 226.89 29.9539 226.068C29.7958 225.245 29.8714 224.395 30.1719 223.614L36.7134 206.481C36.9764 205.802 37.069 205.069 36.9832 204.346C36.8974 203.622 36.6358 202.931 36.2213 202.332L25.8234 187.224C25.3504 186.536 25.079 185.73 25.0396 184.896C25.0002 184.061 25.1944 183.233 25.6004 182.503C26.0064 181.773 26.608 181.172 27.3375 180.765C28.067 180.359 28.8955 180.164 29.7296 180.203Z" stroke="#020064" stroke-width="6.23" stroke-linecap="round" stroke-linejoin="round"/>
<path d="M402.496 69.3531C402.597 68.2662 402.392 67.1725 401.903 66.1962C401.415 65.2199 400.663 64.4 399.732 63.8293C398.801 63.2586 397.729 62.96 396.638 62.9673C395.546 62.9746 394.478 63.2876 393.555 63.8707L373.333 76.6111C372.531 77.1182 371.618 77.4218 370.672 77.4956C369.727 77.5695 368.777 77.4113 367.907 77.0347L345.94 67.5963C344.937 67.1671 343.835 67.0267 342.757 67.1909C341.679 67.355 340.668 67.8173 339.838 68.5254C339.009 69.2336 338.394 70.1594 338.063 71.1984C337.732 72.2374 337.698 73.3483 337.965 74.4056L343.834 97.5813C344.07 98.4979 344.079 99.4581 343.862 100.379C343.645 101.301 343.208 102.155 342.588 102.871L326.826 120.844C326.107 121.664 325.631 122.669 325.453 123.746C325.275 124.822 325.401 125.927 325.818 126.935C326.234 127.944 326.925 128.815 327.811 129.452C328.697 130.089 329.743 130.465 330.832 130.538L354.687 132.114C355.632 132.177 356.548 132.469 357.356 132.965C358.163 133.461 358.838 134.146 359.322 134.961L371.545 155.52C372.102 156.459 372.911 157.222 373.88 157.725C374.849 158.227 375.94 158.448 377.028 158.362C378.116 158.277 379.158 157.888 380.037 157.24C380.915 156.593 381.595 155.712 381.999 154.698L390.877 132.5C391.227 131.62 391.787 130.838 392.508 130.222C393.229 129.607 394.089 129.176 395.013 128.968L418.332 123.691C419.397 123.451 420.373 122.919 421.15 122.153C421.927 121.387 422.474 120.419 422.729 119.358C422.985 118.298 422.938 117.187 422.595 116.151C422.252 115.116 421.625 114.197 420.787 113.499L402.415 98.198C401.685 97.5923 401.114 96.8179 400.752 95.9418C400.389 95.0657 400.246 94.1145 400.334 93.1704L402.496 69.3531Z" fill="#F29E9E"/>
<path d="M402.496 69.3531C402.597 68.2662 402.392 67.1725 401.903 66.1962C401.415 65.2199 400.663 64.4 399.732 63.8293C398.801 63.2586 397.729 62.96 396.638 62.9673C395.546 62.9746 394.478 63.2876 393.555 63.8707L373.333 76.6111C372.531 77.1182 371.618 77.4218 370.672 77.4956C369.727 77.5695 368.777 77.4112 367.907 77.0347L345.94 67.5963C344.938 67.1652 343.835 67.0231 342.757 67.1861C341.678 67.3491 340.667 67.8106 339.837 68.5185C339.007 69.2264 338.392 70.1524 338.061 71.1917C337.731 72.231 337.697 73.3421 337.965 74.3994L343.834 97.5813C344.07 98.4979 344.079 99.4581 343.862 100.379C343.645 101.301 343.208 102.155 342.588 102.871L326.826 120.844C326.107 121.664 325.631 122.669 325.453 123.746C325.275 124.822 325.401 125.927 325.818 126.935C326.234 127.944 326.925 128.815 327.811 129.452C328.697 130.089 329.743 130.465 330.832 130.538L354.687 132.114C355.632 132.177 356.548 132.469 357.356 132.965C358.163 133.461 358.838 134.146 359.322 134.961L371.545 155.52C372.102 156.459 372.911 157.222 373.88 157.725C374.849 158.227 375.94 158.448 377.028 158.362C378.116 158.277 379.158 157.888 380.037 157.24C380.915 156.593 381.595 155.712 381.999 154.698L390.877 132.5C391.227 131.62 391.787 130.838 392.508 130.222C393.229 129.607 394.089 129.176 395.013 128.968L418.332 123.691C419.397 123.451 420.373 122.919 421.15 122.153C421.927 121.387 422.474 120.419 422.73 119.358C422.985 118.298 422.938 117.187 422.595 116.151C422.252 115.116 421.625 114.197 420.787 113.499L402.415 98.198C401.685 97.5923 401.114 96.8179 400.752 95.9418C400.389 95.0657 400.246 94.1145 400.334 93.1704L402.496 69.3531Z" stroke="#020064" stroke-width="6.23" stroke-linecap="round" stroke-linejoin="round"/>
<path d="M476.595 187.224C477.071 186.536 477.345 185.728 477.385 184.891C477.425 184.055 477.23 183.224 476.822 182.493C476.414 181.762 475.809 181.16 475.076 180.756C474.344 180.351 473.512 180.159 472.676 180.203L454.36 181.138C453.633 181.176 452.908 181.036 452.248 180.73C451.587 180.424 451.012 179.96 450.572 179.381L439.414 164.821C438.905 164.157 438.22 163.647 437.436 163.352C436.653 163.056 435.802 162.986 434.981 163.148C434.16 163.311 433.4 163.701 432.789 164.273C432.177 164.845 431.738 165.576 431.521 166.385L426.755 184.097C426.564 184.798 426.207 185.442 425.713 185.975C425.22 186.507 424.604 186.913 423.92 187.156L406.625 193.268C405.835 193.545 405.138 194.038 404.614 194.691C404.089 195.345 403.759 196.132 403.66 196.964C403.56 197.796 403.696 198.639 404.052 199.397C404.408 200.156 404.969 200.799 405.672 201.254L421.036 211.266C421.646 211.662 422.15 212.201 422.505 212.836C422.86 213.471 423.055 214.183 423.073 214.911L423.54 233.245C423.561 234.082 423.816 234.896 424.276 235.596C424.735 236.295 425.382 236.852 426.141 237.203C426.901 237.554 427.744 237.686 428.574 237.583C429.405 237.481 430.19 237.148 430.842 236.622L445.114 225.103C445.679 224.644 446.347 224.33 447.06 224.188C447.773 224.046 448.51 224.08 449.208 224.287L466.789 229.514C467.591 229.752 468.444 229.762 469.252 229.541C470.059 229.32 470.788 228.878 471.358 228.264C471.927 227.65 472.313 226.889 472.472 226.068C472.631 225.246 472.557 224.396 472.259 223.614L465.711 206.481C465.451 205.802 465.359 205.069 465.445 204.346C465.531 203.623 465.791 202.932 466.203 202.332L476.595 187.224Z" fill="#F29E9E"/>
<path d="M476.595 187.225C477.071 186.536 477.345 185.728 477.385 184.892C477.425 184.056 477.23 183.225 476.822 182.494C476.414 181.763 475.809 181.161 475.076 180.756C474.344 180.351 473.512 180.16 472.676 180.204L454.36 181.138C453.633 181.176 452.908 181.036 452.248 180.73C451.587 180.424 451.012 179.961 450.572 179.381L439.414 164.822C438.904 164.159 438.22 163.651 437.437 163.357C436.655 163.062 435.805 162.992 434.985 163.155C434.165 163.318 433.406 163.706 432.795 164.277C432.184 164.848 431.745 165.578 431.527 166.385L426.755 184.097C426.564 184.798 426.207 185.442 425.713 185.975C425.22 186.508 424.604 186.913 423.92 187.156L406.625 193.268C405.835 193.545 405.138 194.038 404.614 194.692C404.089 195.345 403.759 196.132 403.66 196.964C403.56 197.796 403.696 198.639 404.052 199.397C404.408 200.156 404.969 200.799 405.672 201.255L421.036 211.266C421.646 211.662 422.15 212.201 422.505 212.836C422.86 213.471 423.055 214.184 423.073 214.911L423.54 233.246C423.561 234.082 423.816 234.896 424.276 235.596C424.735 236.295 425.382 236.852 426.141 237.203C426.901 237.555 427.744 237.686 428.574 237.584C429.405 237.481 430.19 237.148 430.842 236.622L445.114 225.103C445.679 224.645 446.347 224.331 447.06 224.188C447.773 224.046 448.51 224.08 449.208 224.287L466.795 229.514C467.597 229.751 468.449 229.76 469.255 229.538C470.062 229.317 470.79 228.874 471.359 228.261C471.927 227.647 472.312 226.887 472.471 226.066C472.63 225.245 472.557 224.396 472.259 223.614L465.711 206.482C465.451 205.802 465.359 205.069 465.445 204.346C465.531 203.624 465.791 202.932 466.203 202.332L476.595 187.225Z" stroke="#020064" stroke-width="6.23" stroke-linecap="round" stroke-linejoin="round"/>
</svg>
