<svg width="248" height="20" viewBox="0 0 248 20" fill="none" xmlns="http://www.w3.org/2000/svg">
<path d="M0.517045 19V1.54545H7.40341C8.72159 1.54545 9.84659 1.78125 10.7784 2.25284C11.7159 2.71875 12.429 3.38068 12.9176 4.23864C13.4119 5.09091 13.6591 6.09375 13.6591 7.24716C13.6591 8.40625 13.4091 9.40341 12.9091 10.2386C12.4091 11.0682 11.6847 11.7045 10.7358 12.1477C9.79261 12.5909 8.65057 12.8125 7.30966 12.8125H2.69886V9.84659H6.71307C7.41761 9.84659 8.00284 9.75 8.46875 9.55682C8.93466 9.36364 9.28125 9.07386 9.50852 8.6875C9.74148 8.30114 9.85795 7.82102 9.85795 7.24716C9.85795 6.66761 9.74148 6.17898 9.50852 5.78125C9.28125 5.38352 8.93182 5.08239 8.46023 4.87784C7.99432 4.66761 7.40625 4.5625 6.69602 4.5625H4.20739V19H0.517045ZM9.94318 11.0568L14.2812 19H10.2074L5.96307 11.0568H9.94318ZM19.9318 19.2472C19.0966 19.2472 18.3523 19.1023 17.6989 18.8125C17.0455 18.517 16.5284 18.0824 16.1477 17.5085C15.7727 16.929 15.5852 16.2074 15.5852 15.3438C15.5852 14.6165 15.7188 14.0057 15.9858 13.5114C16.2528 13.017 16.6165 12.6193 17.0767 12.3182C17.5369 12.017 18.0597 11.7898 18.6449 11.6364C19.2358 11.483 19.8551 11.375 20.5028 11.3125C21.2642 11.233 21.8778 11.1591 22.3438 11.0909C22.8097 11.017 23.1477 10.9091 23.358 10.767C23.5682 10.625 23.6733 10.4148 23.6733 10.1364V10.0852C23.6733 9.54545 23.5028 9.12784 23.1619 8.83239C22.8267 8.53693 22.3494 8.3892 21.7301 8.3892C21.0767 8.3892 20.5568 8.53409 20.1705 8.82386C19.7841 9.10795 19.5284 9.46591 19.4034 9.89773L16.0455 9.625C16.2159 8.82955 16.5511 8.14205 17.0511 7.5625C17.5511 6.97727 18.196 6.52841 18.9858 6.21591C19.7813 5.89773 20.7017 5.73864 21.7472 5.73864C22.4744 5.73864 23.1705 5.82386 23.8352 5.99432C24.5057 6.16477 25.0994 6.42898 25.6165 6.78693C26.1392 7.14489 26.5511 7.60511 26.8523 8.16761C27.1534 8.72443 27.304 9.39205 27.304 10.1705V19H23.8608V17.1847H23.7585C23.5483 17.5938 23.267 17.9545 22.9148 18.267C22.5625 18.5739 22.1392 18.8153 21.6449 18.9915C21.1506 19.1619 20.5795 19.2472 19.9318 19.2472ZM20.9716 16.7415C21.5057 16.7415 21.9773 16.6364 22.3864 16.4261C22.7955 16.2102 23.1165 15.9205 23.3494 15.5568C23.5824 15.1932 23.6989 14.7812 23.6989 14.321V12.9318C23.5852 13.0057 23.429 13.0739 23.2301 13.1364C23.0369 13.1932 22.8182 13.2472 22.5739 13.2983C22.3295 13.3437 22.0852 13.3864 21.8409 13.4261C21.5966 13.4602 21.375 13.4915 21.1761 13.5199C20.75 13.5824 20.3778 13.6818 20.0597 13.8182C19.7415 13.9545 19.4943 14.1392 19.3182 14.3722C19.142 14.5994 19.054 14.8835 19.054 15.2244C19.054 15.7188 19.233 16.0966 19.5909 16.358C19.9545 16.6136 20.4148 16.7415 20.9716 16.7415ZM37.0838 5.90909V8.63636H29.2003V5.90909H37.0838ZM30.9901 2.77273H34.6207V14.9773C34.6207 15.3125 34.6719 15.5739 34.7741 15.7614C34.8764 15.9432 35.0185 16.071 35.2003 16.1449C35.3878 16.2187 35.6037 16.2557 35.848 16.2557C36.0185 16.2557 36.1889 16.2415 36.3594 16.2131C36.5298 16.179 36.6605 16.1534 36.7514 16.1364L37.3224 18.8381C37.1406 18.8949 36.8849 18.9602 36.5554 19.0341C36.2259 19.1136 35.8253 19.1619 35.3537 19.179C34.4787 19.2131 33.7116 19.0966 33.0526 18.8295C32.3991 18.5625 31.8906 18.1477 31.527 17.5852C31.1634 17.0227 30.9844 16.3125 30.9901 15.4545V2.77273ZM45.2741 19.2557C43.9276 19.2557 42.7685 18.983 41.7969 18.4375C40.831 17.8864 40.0866 17.108 39.5639 16.1023C39.0412 15.0909 38.7798 13.8949 38.7798 12.5142C38.7798 11.1676 39.0412 9.9858 39.5639 8.96875C40.0866 7.9517 40.8224 7.15909 41.7713 6.59091C42.7259 6.02273 43.8452 5.73864 45.1293 5.73864C45.9929 5.73864 46.7969 5.87784 47.5412 6.15625C48.2912 6.42898 48.9446 6.84091 49.5014 7.39205C50.0639 7.94318 50.5014 8.63636 50.8139 9.47159C51.1264 10.3011 51.2827 11.2727 51.2827 12.3864V13.3835H40.2287V11.1335H47.8651C47.8651 10.6108 47.7514 10.1477 47.5241 9.74432C47.2969 9.34091 46.9815 9.02557 46.5781 8.7983C46.1804 8.56534 45.7173 8.44886 45.1889 8.44886C44.6378 8.44886 44.1491 8.5767 43.723 8.83239C43.3026 9.08239 42.973 9.42045 42.7344 9.84659C42.4957 10.267 42.3736 10.7358 42.3679 11.2528V13.392C42.3679 14.0398 42.4872 14.5994 42.7259 15.071C42.9702 15.5426 43.3139 15.9062 43.7571 16.1619C44.2003 16.4176 44.7259 16.5455 45.3338 16.5455C45.7372 16.5455 46.1065 16.4886 46.4418 16.375C46.777 16.2614 47.0639 16.0909 47.3026 15.8636C47.5412 15.6364 47.723 15.358 47.848 15.0284L51.206 15.25C51.0355 16.0568 50.6861 16.7614 50.1577 17.3636C49.6349 17.9602 48.9588 18.4261 48.1293 18.7614C47.3054 19.0909 46.3537 19.2557 45.2741 19.2557ZM53.7202 19V1.54545H65.4815V4.58807H57.4105V8.74716H64.8764V11.7898H57.4105V15.9574H65.5156V19H53.7202ZM79.2393 9.64205L75.9155 9.84659C75.8587 9.5625 75.7365 9.30682 75.549 9.07955C75.3615 8.84659 75.1143 8.66193 74.8075 8.52557C74.5064 8.38352 74.1456 8.3125 73.7251 8.3125C73.1626 8.3125 72.6882 8.43182 72.3018 8.67045C71.9155 8.90341 71.7223 9.21591 71.7223 9.60795C71.7223 9.92045 71.8473 10.1847 72.0973 10.4006C72.3473 10.6165 72.7763 10.7898 73.3842 10.9205L75.7536 11.3977C77.0263 11.6591 77.9751 12.0795 78.6001 12.6591C79.2251 13.2386 79.5376 14 79.5376 14.9432C79.5376 15.8011 79.2848 16.554 78.7791 17.2017C78.2791 17.8494 77.5916 18.3551 76.7166 18.7188C75.8473 19.0767 74.8445 19.2557 73.7081 19.2557C71.9751 19.2557 70.5945 18.8949 69.5661 18.1733C68.5433 17.446 67.9439 16.4574 67.7678 15.2074L71.3388 15.0199C71.4467 15.5483 71.7081 15.9517 72.1229 16.2301C72.5376 16.5028 73.0689 16.6392 73.7166 16.6392C74.353 16.6392 74.8643 16.517 75.2507 16.2727C75.6428 16.0227 75.8416 15.7017 75.8473 15.3097C75.8416 14.9801 75.7024 14.7102 75.4297 14.5C75.157 14.2841 74.7365 14.1193 74.1683 14.0057L71.9013 13.554C70.6229 13.2983 69.6712 12.8551 69.0462 12.2244C68.4268 11.5937 68.1172 10.7898 68.1172 9.8125C68.1172 8.97159 68.3445 8.24716 68.799 7.6392C69.2592 7.03125 69.9041 6.5625 70.7337 6.23295C71.5689 5.90341 72.5462 5.73864 73.6655 5.73864C75.3189 5.73864 76.62 6.08807 77.5689 6.78693C78.5234 7.4858 79.0803 8.4375 79.2393 9.64205ZM88.7869 5.90909V8.63636H80.9034V5.90909H88.7869ZM82.6932 2.77273H86.3239V14.9773C86.3239 15.3125 86.375 15.5739 86.4773 15.7614C86.5795 15.9432 86.7216 16.071 86.9034 16.1449C87.0909 16.2187 87.3068 16.2557 87.5511 16.2557C87.7216 16.2557 87.892 16.2415 88.0625 16.2131C88.233 16.179 88.3636 16.1534 88.4545 16.1364L89.0256 18.8381C88.8438 18.8949 88.5881 18.9602 88.2585 19.0341C87.929 19.1136 87.5284 19.1619 87.0568 19.179C86.1818 19.2131 85.4148 19.0966 84.7557 18.8295C84.1023 18.5625 83.5938 18.1477 83.2301 17.5852C82.8665 17.0227 82.6875 16.3125 82.6932 15.4545V2.77273ZM94.8849 19.2472C94.0497 19.2472 93.3054 19.1023 92.652 18.8125C91.9986 18.517 91.4815 18.0824 91.1009 17.5085C90.7259 16.929 90.5384 16.2074 90.5384 15.3438C90.5384 14.6165 90.6719 14.0057 90.9389 13.5114C91.206 13.017 91.5696 12.6193 92.0298 12.3182C92.4901 12.017 93.0128 11.7898 93.598 11.6364C94.1889 11.483 94.8082 11.375 95.456 11.3125C96.2173 11.233 96.831 11.1591 97.2969 11.0909C97.7628 11.017 98.1009 10.9091 98.3111 10.767C98.5213 10.625 98.6264 10.4148 98.6264 10.1364V10.0852C98.6264 9.54545 98.456 9.12784 98.1151 8.83239C97.7798 8.53693 97.3026 8.3892 96.6832 8.3892C96.0298 8.3892 95.5099 8.53409 95.1236 8.82386C94.7372 9.10795 94.4815 9.46591 94.3565 9.89773L90.9986 9.625C91.169 8.82955 91.5043 8.14205 92.0043 7.5625C92.5043 6.97727 93.1491 6.52841 93.9389 6.21591C94.7344 5.89773 95.6548 5.73864 96.7003 5.73864C97.4276 5.73864 98.1236 5.82386 98.7884 5.99432C99.4588 6.16477 100.053 6.42898 100.57 6.78693C101.092 7.14489 101.504 7.60511 101.805 8.16761C102.107 8.72443 102.257 9.39205 102.257 10.1705V19H98.8139V17.1847H98.7116C98.5014 17.5938 98.2202 17.9545 97.8679 18.267C97.5156 18.5739 97.0923 18.8153 96.598 18.9915C96.1037 19.1619 95.5327 19.2472 94.8849 19.2472ZM95.9247 16.7415C96.4588 16.7415 96.9304 16.6364 97.3395 16.4261C97.7486 16.2102 98.0696 15.9205 98.3026 15.5568C98.5355 15.1932 98.652 14.7812 98.652 14.321V12.9318C98.5384 13.0057 98.3821 13.0739 98.1832 13.1364C97.9901 13.1932 97.7713 13.2472 97.527 13.2983C97.2827 13.3437 97.0384 13.3864 96.794 13.4261C96.5497 13.4602 96.3281 13.4915 96.1293 13.5199C95.7031 13.5824 95.331 13.6818 95.0128 13.8182C94.6946 13.9545 94.4474 14.1392 94.2713 14.3722C94.0952 14.5994 94.0071 14.8835 94.0071 15.2244C94.0071 15.7188 94.1861 16.0966 94.544 16.358C94.9077 16.6136 95.3679 16.7415 95.9247 16.7415ZM105.142 19V1.54545H108.773V8.10795H108.884C109.043 7.75568 109.273 7.39773 109.574 7.03409C109.881 6.66477 110.278 6.35795 110.767 6.11364C111.261 5.86364 111.875 5.73864 112.608 5.73864C113.563 5.73864 114.443 5.98864 115.25 6.48864C116.057 6.98295 116.702 7.73011 117.185 8.73011C117.668 9.72443 117.909 10.9716 117.909 12.4716C117.909 13.9318 117.673 15.1648 117.202 16.1705C116.736 17.1705 116.099 17.929 115.293 18.446C114.491 18.9574 113.594 19.2131 112.599 19.2131C111.895 19.2131 111.295 19.0966 110.801 18.8636C110.312 18.6307 109.912 18.3381 109.599 17.9858C109.287 17.6278 109.048 17.267 108.884 16.9034H108.722V19H105.142ZM108.696 12.4545C108.696 13.233 108.804 13.9119 109.02 14.4915C109.236 15.071 109.548 15.5227 109.957 15.8466C110.366 16.1648 110.864 16.3239 111.449 16.3239C112.04 16.3239 112.54 16.1619 112.949 15.8381C113.358 15.5085 113.668 15.054 113.878 14.4744C114.094 13.8892 114.202 13.2159 114.202 12.4545C114.202 11.6989 114.097 11.0341 113.886 10.4602C113.676 9.88636 113.366 9.4375 112.957 9.11364C112.548 8.78977 112.045 8.62784 111.449 8.62784C110.858 8.62784 110.358 8.78409 109.949 9.09659C109.545 9.40909 109.236 9.85227 109.02 10.4261C108.804 11 108.696 11.6761 108.696 12.4545ZM123.962 1.54545V19H120.332V1.54545H123.962ZM126.871 19V5.90909H130.501V19H126.871ZM128.695 4.22159C128.155 4.22159 127.692 4.04261 127.305 3.68466C126.925 3.32102 126.734 2.88636 126.734 2.38068C126.734 1.88068 126.925 1.4517 127.305 1.09375C127.692 0.730113 128.155 0.548295 128.695 0.548295C129.234 0.548295 129.695 0.730113 130.075 1.09375C130.462 1.4517 130.655 1.88068 130.655 2.38068C130.655 2.88636 130.462 3.32102 130.075 3.68466C129.695 4.04261 129.234 4.22159 128.695 4.22159ZM144.302 9.64205L140.978 9.84659C140.921 9.5625 140.799 9.30682 140.612 9.07955C140.424 8.84659 140.177 8.66193 139.87 8.52557C139.569 8.38352 139.208 8.3125 138.788 8.3125C138.225 8.3125 137.751 8.43182 137.364 8.67045C136.978 8.90341 136.785 9.21591 136.785 9.60795C136.785 9.92045 136.91 10.1847 137.16 10.4006C137.41 10.6165 137.839 10.7898 138.447 10.9205L140.816 11.3977C142.089 11.6591 143.038 12.0795 143.663 12.6591C144.288 13.2386 144.6 14 144.6 14.9432C144.6 15.8011 144.347 16.554 143.842 17.2017C143.342 17.8494 142.654 18.3551 141.779 18.7188C140.91 19.0767 139.907 19.2557 138.771 19.2557C137.038 19.2557 135.657 18.8949 134.629 18.1733C133.606 17.446 133.006 16.4574 132.83 15.2074L136.401 15.0199C136.509 15.5483 136.771 15.9517 137.185 16.2301C137.6 16.5028 138.131 16.6392 138.779 16.6392C139.415 16.6392 139.927 16.517 140.313 16.2727C140.705 16.0227 140.904 15.7017 140.91 15.3097C140.904 14.9801 140.765 14.7102 140.492 14.5C140.219 14.2841 139.799 14.1193 139.231 14.0057L136.964 13.554C135.685 13.2983 134.734 12.8551 134.109 12.2244C133.489 11.5937 133.18 10.7898 133.18 9.8125C133.18 8.97159 133.407 8.24716 133.862 7.6392C134.322 7.03125 134.967 6.5625 135.796 6.23295C136.631 5.90341 137.609 5.73864 138.728 5.73864C140.381 5.73864 141.683 6.08807 142.631 6.78693C143.586 7.4858 144.143 8.4375 144.302 9.64205ZM150.517 11.4318V19H146.886V1.54545H150.415V8.21875H150.568C150.864 7.44602 151.341 6.84091 152 6.40341C152.659 5.96023 153.486 5.73864 154.48 5.73864C155.389 5.73864 156.182 5.9375 156.858 6.33523C157.54 6.72727 158.068 7.29261 158.443 8.03125C158.824 8.7642 159.011 9.64205 159.006 10.6648V19H155.375V11.3125C155.381 10.5057 155.176 9.87784 154.761 9.42898C154.352 8.98011 153.778 8.75568 153.04 8.75568C152.545 8.75568 152.108 8.8608 151.727 9.07102C151.352 9.28125 151.057 9.58807 150.841 9.99148C150.631 10.3892 150.523 10.8693 150.517 11.4318ZM167.829 19.2557C166.482 19.2557 165.323 18.983 164.352 18.4375C163.386 17.8864 162.641 17.108 162.119 16.1023C161.596 15.0909 161.335 13.8949 161.335 12.5142C161.335 11.1676 161.596 9.9858 162.119 8.96875C162.641 7.9517 163.377 7.15909 164.326 6.59091C165.281 6.02273 166.4 5.73864 167.684 5.73864C168.548 5.73864 169.352 5.87784 170.096 6.15625C170.846 6.42898 171.499 6.84091 172.056 7.39205C172.619 7.94318 173.056 8.63636 173.369 9.47159C173.681 10.3011 173.837 11.2727 173.837 12.3864V13.3835H162.783V11.1335H170.42C170.42 10.6108 170.306 10.1477 170.079 9.74432C169.852 9.34091 169.536 9.02557 169.133 8.7983C168.735 8.56534 168.272 8.44886 167.744 8.44886C167.192 8.44886 166.704 8.5767 166.278 8.83239C165.857 9.08239 165.528 9.42045 165.289 9.84659C165.05 10.267 164.928 10.7358 164.923 11.2528V13.392C164.923 14.0398 165.042 14.5994 165.281 15.071C165.525 15.5426 165.869 15.9062 166.312 16.1619C166.755 16.4176 167.281 16.5455 167.888 16.5455C168.292 16.5455 168.661 16.4886 168.996 16.375C169.332 16.2614 169.619 16.0909 169.857 15.8636C170.096 15.6364 170.278 15.358 170.403 15.0284L173.761 15.25C173.59 16.0568 173.241 16.7614 172.712 17.3636C172.19 17.9602 171.513 18.4261 170.684 18.7614C169.86 19.0909 168.908 19.2557 167.829 19.2557ZM176.207 19V5.90909H179.667V8.21875H179.82C180.093 7.4517 180.548 6.84659 181.184 6.40341C181.82 5.96023 182.582 5.73864 183.468 5.73864C184.366 5.73864 185.13 5.96307 185.761 6.41193C186.391 6.85511 186.812 7.45739 187.022 8.21875H187.158C187.425 7.46875 187.908 6.86932 188.607 6.42045C189.312 5.96591 190.144 5.73864 191.104 5.73864C192.326 5.73864 193.317 6.12784 194.079 6.90625C194.846 7.67898 195.229 8.77557 195.229 10.196V19H191.607V10.9119C191.607 10.1847 191.414 9.6392 191.028 9.27557C190.641 8.91193 190.158 8.73011 189.579 8.73011C188.92 8.73011 188.406 8.94034 188.036 9.3608C187.667 9.77557 187.482 10.3239 187.482 11.0057V19H183.962V10.8352C183.962 10.1932 183.778 9.68182 183.408 9.30114C183.045 8.92045 182.565 8.73011 181.968 8.73011C181.565 8.73011 181.201 8.83239 180.877 9.03693C180.559 9.2358 180.306 9.51705 180.119 9.88068C179.931 10.2386 179.837 10.6591 179.837 11.142V19H176.207ZM204.063 19.2557C202.717 19.2557 201.558 18.983 200.586 18.4375C199.62 17.8864 198.876 17.108 198.353 16.1023C197.83 15.0909 197.569 13.8949 197.569 12.5142C197.569 11.1676 197.83 9.9858 198.353 8.96875C198.876 7.9517 199.612 7.15909 200.56 6.59091C201.515 6.02273 202.634 5.73864 203.918 5.73864C204.782 5.73864 205.586 5.87784 206.33 6.15625C207.08 6.42898 207.734 6.84091 208.29 7.39205C208.853 7.94318 209.29 8.63636 209.603 9.47159C209.915 10.3011 210.072 11.2727 210.072 12.3864V13.3835H199.018V11.1335H206.654C206.654 10.6108 206.54 10.1477 206.313 9.74432C206.086 9.34091 205.771 9.02557 205.367 8.7983C204.969 8.56534 204.506 8.44886 203.978 8.44886C203.427 8.44886 202.938 8.5767 202.512 8.83239C202.092 9.08239 201.762 9.42045 201.523 9.84659C201.285 10.267 201.163 10.7358 201.157 11.2528V13.392C201.157 14.0398 201.276 14.5994 201.515 15.071C201.759 15.5426 202.103 15.9062 202.546 16.1619C202.989 16.4176 203.515 16.5455 204.123 16.5455C204.526 16.5455 204.896 16.4886 205.231 16.375C205.566 16.2614 205.853 16.0909 206.092 15.8636C206.33 15.6364 206.512 15.358 206.637 15.0284L209.995 15.25C209.825 16.0568 209.475 16.7614 208.947 17.3636C208.424 17.9602 207.748 18.4261 206.918 18.7614C206.094 19.0909 205.143 19.2557 204.063 19.2557ZM216.072 11.4318V19H212.441V5.90909H215.901V8.21875H216.055C216.344 7.45739 216.83 6.85511 217.512 6.41193C218.194 5.96307 219.021 5.73864 219.992 5.73864C220.901 5.73864 221.694 5.9375 222.37 6.33523C223.046 6.73295 223.572 7.30114 223.947 8.03977C224.322 8.77273 224.509 9.64773 224.509 10.6648V19H220.879V11.3125C220.884 10.5114 220.68 9.88636 220.265 9.4375C219.85 8.98295 219.279 8.75568 218.552 8.75568C218.063 8.75568 217.631 8.8608 217.256 9.07102C216.887 9.28125 216.597 9.58807 216.387 9.99148C216.183 10.3892 216.077 10.8693 216.072 11.4318ZM234.334 5.90909V8.63636H226.45V5.90909H234.334ZM228.24 2.77273H231.871V14.9773C231.871 15.3125 231.922 15.5739 232.024 15.7614C232.126 15.9432 232.268 16.071 232.45 16.1449C232.638 16.2187 232.854 16.2557 233.098 16.2557C233.268 16.2557 233.439 16.2415 233.609 16.2131C233.78 16.179 233.911 16.1534 234.001 16.1364L234.572 18.8381C234.391 18.8949 234.135 18.9602 233.805 19.0341C233.476 19.1136 233.075 19.1619 232.604 19.179C231.729 19.2131 230.962 19.0966 230.303 18.8295C229.649 18.5625 229.141 18.1477 228.777 17.5852C228.413 17.0227 228.234 16.3125 228.24 15.4545V2.77273ZM247.427 9.64205L244.103 9.84659C244.046 9.5625 243.924 9.30682 243.737 9.07955C243.549 8.84659 243.302 8.66193 242.995 8.52557C242.694 8.38352 242.333 8.3125 241.913 8.3125C241.35 8.3125 240.876 8.43182 240.489 8.67045C240.103 8.90341 239.91 9.21591 239.91 9.60795C239.91 9.92045 240.035 10.1847 240.285 10.4006C240.535 10.6165 240.964 10.7898 241.572 10.9205L243.941 11.3977C245.214 11.6591 246.163 12.0795 246.788 12.6591C247.413 13.2386 247.725 14 247.725 14.9432C247.725 15.8011 247.472 16.554 246.967 17.2017C246.467 17.8494 245.779 18.3551 244.904 18.7188C244.035 19.0767 243.032 19.2557 241.896 19.2557C240.163 19.2557 238.782 18.8949 237.754 18.1733C236.731 17.446 236.131 16.4574 235.955 15.2074L239.526 15.0199C239.634 15.5483 239.896 15.9517 240.31 16.2301C240.725 16.5028 241.256 16.6392 241.904 16.6392C242.54 16.6392 243.052 16.517 243.438 16.2727C243.83 16.0227 244.029 15.7017 244.035 15.3097C244.029 14.9801 243.89 14.7102 243.617 14.5C243.344 14.2841 242.924 14.1193 242.356 14.0057L240.089 13.554C238.81 13.2983 237.859 12.8551 237.234 12.2244C236.614 11.5937 236.305 10.7898 236.305 9.8125C236.305 8.97159 236.532 8.24716 236.987 7.6392C237.447 7.03125 238.092 6.5625 238.921 6.23295C239.756 5.90341 240.734 5.73864 241.853 5.73864C243.506 5.73864 244.808 6.08807 245.756 6.78693C246.711 7.4858 247.268 8.4375 247.427 9.64205Z" fill="#F29E9E"/>
</svg>
